<svg xmlns="http://www.w3.org/2000/svg" xmlns:xlink="http://www.w3.org/1999/xlink" id="Layer_1" x="0px" y="0px" viewBox="0 0 499.7 622.3" style="enable-background:new 0 0 499.7 622.3;" xml:space="preserve"><style type="text/css">	.st0{fill:#11253B;stroke:#11253B;stroke-width:4;stroke-miterlimit:10;}	.st1{fill:#22404F;}	.st2{fill:#3FA8A4;}	.st3{fill:#11253B;}	.st4{fill:#F6D52A;}</style><path class="st0" d="M312.5,553.1c-1.3,2-3,4.4-5,7c-0.2-0.3-0.5-0.6-0.8-0.9c0,0-0.5-0.4-1-0.9c-10.9-11.2-25.2-19.7-40-24.7  c-0.3-0.1-0.5-0.2-0.8-0.3c-1.5-0.5-3-0.9-4.5-1.4c-0.2-0.1-0.5-0.1-0.7-0.2c-4.9-1.3-9.8-2.3-14.8-2.9c-0.7-0.1-1.4-0.2-2.1-0.3  c-1.9-0.2-3.8-0.5-5.7-0.7c-0.2,0-0.3,0-0.5,0l-3.6,13.7c0.6,0.1,0.7,0.1,1.2,0c1.6-0.2,3.1-0.2,4.7,0c0.7,0.1,1.4,0.1,2.1,0.2  c0.9-0.1,1.6-0.1,2.5,0c0.4,0,0.7,0.1,1.1,0.1c0.4,0,0.8,0.1,1.2,0.2c0.6,0.1,1.3,0.2,1.9,0.2c2.3,0.3,4.6,0.7,6.9,1.2l-11-1.7  c-2.6,10.1-5.5,27.3-1.7,47.8c0.5,2.5,1,4.9,1.6,7.2c0,0,1.8,6.9,3.9,12.2c0.2,0.4,0.4,0.8,0.4,0.8c0.7,1.7,1.4,2.9,2.2,4.2  c1.1,2,2.3,3.9,3.4,5.5l0.2,0.4l13.1-5.3l-5.8-8.1c10.4-3.3,23.2-8.8,35.9-18.4c11.4-8.5,19.3-17.8,24.7-25.1l0.1-1.2L312.5,553.1  L312.5,553.1z M275.4,585.6c-6.8,3.1-13.2,4.8-18.8,5.9c-0.4,0.1-0.8,0.1-1.1,0.2c-0.1,0-0.1,0-0.2,0c-0.2,0-0.4,0.1-0.6,0.1  c-0.5-1.5-0.8-2.9-1.2-4.3c-0.1-0.5-0.2-1-0.3-1.5c-1.5-7.8-2.4-18.7,0.1-31.1c0.9-4.1,2-7.8,3.2-11.1c5.2,1.3,10.2,3.1,15.1,5.5  c0.2,0.1,0.4,0.2,0.6,0.3c7.5,3.6,14.5,8.6,20.4,14.5c0.4,0.3,0.9,0.9,1.7,1.7l1.2,1.2c0.2,0.2,0.4,0.4,0.6,0.6  c0.2,0.2,0.4,0.4,0.5,0.5c0.3,0.3,0.9,0.8,1,0.9c0.2,0.2,0.5,0.5,0.9,0.8C292.7,575.5,285,581.2,275.4,585.6L275.4,585.6z   M307.9,560.4C307.9,560.4,307.8,560.3,307.9,560.4c0-0.1,0-0.2,0-0.2C307.9,560.3,307.8,560.3,307.9,560.4L307.9,560.4z"></path><path class="st1" d="M-20.4,531.9L-20.4,531.9L-20.4,531.9L-20.4,531.9L-20.4,531.9z"></path><path class="st2" d="M376.2,98.7c-0.7-1-1.4-1.9-2.1-2.8c-17.5-24.1-35.9-47.4-57.9-67.6c-0.7-0.7-1.4-1.3-2.1-2  c-5.4-5-10.8-10-16.6-14.5C281.5,0.9,262.1-3,243.2,0c-17.2,4-38.7,14.2-49.3,28.9c42,20.2,78.5,48.4,111.1,81.5  c0.8,0.9,1.6,1.7,2.5,2.5c12.4,12.6,23.5,25.8,34,39.9c0.9,1.2,1.8,2.5,2.7,3.7c16.7,22.1,30,45.9,41.9,70.9c1.3,2.8,2.7,5.5,4,8.3  c1.7,3.4,3.3,6.9,5,10.3c0.3,0.7,0.6,1.3,0.9,2c4.1,8.5,7.9,17,11.2,25.9c-2.6,1.3-4.4,2.3-5.6,3.2c-4.5,3.6-9.1,6.7-14.2,9.5  c-2.2,1.2-4.5,2.5-6.7,3.8c-0.7,0.6-1.4,1.1-2.1,1.6c-1.7,1.2-3.4,2.3-5.3,3.3c-1.2,0.6-2.4,1.2-3.5,1.7c-1.3,0.6-2.6,1.3-4,1.9  c-2,1-4.1,2-6.2,3c-8.1,4-16.4,7.6-24.8,10.7c-19.5,7.4-39.8,12.4-60.8,15c-0.8,0.1-1.6,0.2-2.4,0.3c-29.8,3.9-60.4,2.7-89.8-3.3  c-1.8-0.4-4.6-0.9-8.6-1.8c-2-0.4-4.1-0.8-6.1-1.2c-1-0.2-1.9-0.4-2.9-0.6c-0.9-0.2-1.8-0.4-2.7-0.6c-1.5-0.3-4.1-0.7-4.7-0.7  c-0.5-0.1-1-0.1-1.6-0.2c-2,11.2-3.4,22.6-4,34.1c-0.1,2.3-0.3,4.5-0.4,6.8c-0.1,1.5-0.2,2.9-0.3,4.4c-0.1,1.3-0.1,1.7-0.1,2.5  c0.9,0.1,2.3,0.4,3.7,0.7c54.8,12.1,114.3,9.5,168.4-4.8c1-0.3,1.9-0.5,2.9-0.8c5.4-1.4,10.7-3,16.1-4.7c0.9-0.3,1.8-0.6,2.7-0.9  c17.4-5.6,33.8-12.4,50.2-20.6c2.3-1.2,4.6-2.3,6.9-3.4c6.2-3.1,12.4-6.1,18.6-9.2c0.6-0.3,1.2-0.6,1.8-0.9c0.5,2.5,1.1,5.1,1.7,7.7  c0.2,1.1,0.5,2.1,0.7,3.2c1.4,6.4,2.8,12.7,5,18.9c15.1-7.1,28.6-16,42.4-25.4C461.9,246.9,423.6,163.3,376.2,98.7L376.2,98.7z   M382.6,304.1c0-0.1-0.1-0.3-0.1-0.4c0.2-0.1,0.3-0.1,0.5-0.2C382.9,303.6,382.7,303.8,382.6,304.1L382.6,304.1z"></path><path class="st2" d="M143.6,365.7c0.1,0,0.3,0.1,0.4,0.1c0,0.2,0,0.3-0.1,0.5C143.8,366.1,143.7,365.9,143.6,365.7L143.6,365.7z"></path><path class="st2" d="M383,303.4c-0.1,0.2-0.3,0.4-0.4,0.6c0-0.1-0.1-0.3-0.1-0.4C382.7,303.6,382.9,303.5,383,303.4L383,303.4z"></path><path class="st3" d="M471.4,400.1c-6.7,18-19.6,32.9-36.9,41.5c-6.8,2.9-13.8,5.1-20.8,7.3c-0.9,0.3-1.8,0.6-2.8,0.9  c-28.4,9.3-57.7,13.9-87.3,17.3c-1.2,0.1-2.3,0.3-3.5,0.4c-79.6,9.7-171.1,2.1-245.7-29.1c-1.5-16.6-2.6-32.7-1.4-49.4  c6.5,1.2,12.7,3,18.9,4.9c1,0.3,2,0.6,3.1,0.9c2.5,0.8,5,1.5,7.5,2.3c0-0.7,0.1-1.3,0.1-2c0.3-6.9,0.7-13.8,1.1-20.7  c0.1-2.6,0.3-5.1,0.4-7.7c0.9-18.3,3-35.9,6.6-53.9c0.2-0.9,0.4-1.8,0.5-2.7c1.1-5.5,2.4-10.9,3.8-16.3c0.2-1,0.5-1.9,0.7-2.9  c14.1-54.2,41-107.3,78.4-149.1c0.7-0.8,1.4-1.6,1.9-2.2c2.8,1,5.2,2.1,7.7,3.7c1.1,0.7,2.2,1.4,3.3,2.1c1.2,0.8,2.5,1.6,3.7,2.4  c1.9,1.2,3.8,2.5,5.7,3.7c6.9,4.5,13.6,9.2,20.1,14.2c-0.7,0.9-1.2,1.6-1.7,2.2c-0.4,0.5-1.9,2.5-2.9,3.7c-0.6,0.7-1.2,1.4-1.8,2.1  c-0.6,0.7-1.3,1.5-2,2.2c-1.4,1.6-2.7,3.1-4.1,4.7c-2.7,3.1-4.6,5.3-5.8,6.6c-19.6,22.7-35.7,48.8-46.9,76.6  c-0.3,0.7-0.6,1.5-0.9,2.2c-7.1,17.3-12.2,34.9-15.5,53c-2,11.2-3.4,22.6-4,34.1c-0.1,2.3-0.3,4.5-0.4,6.8c-0.1,1.5-0.2,2.9-0.3,4.4  c-0.1,1.3-0.1,1.7-0.1,2.5c0,0.4,0,0.8-0.1,1.5c-0.1,3.1,0.2,5.8,0.7,8.9c0,2.6,0,5.1,0,7.7c0,5.8,0.3,11.3,1.3,17  c0.2,1.5,0.2,3.6,0,6.5c9.3,1.5,18.6,2.4,28.1,3c0.7,0,1.4,0.1,2.2,0.1c3.8,0.2,7.6,0.5,11.4,0.7c3.1,0.2,6.1,0.4,9.2,0.6  c27.6,1.8,54.8,1.9,82.3-1.8c1.5-0.2,3-0.4,4.5-0.6c17.5-2.3,34.5-5.5,51.5-10.1c1.1-0.3,2.2-0.6,3.4-0.9  c44.8-12.2,87.3-30.2,125.5-56.8C478.1,359.4,476.4,383.2,471.4,400.1L471.4,400.1z"></path><path class="st3" d="M201.5,134.1c-0.1,0.1-0.2,0.2-0.3,0.3c-0.1-0.1-0.3-0.2-0.4-0.3C201,134.1,201.3,134.1,201.5,134.1z"></path><path class="st3" d="M87.6,572.2c2.4,1.3,4.2,3,5.3,5c1.1,2,1.7,4.4,1.7,7v5.3c0,6.7-1.7,11.6-5.2,14.8s-9.1,4.8-17,4.8H11.6v-72.8  h59c7.9,0,13.6,1.6,17,4.8c3.5,3.2,5.2,8.1,5.2,14.8v5.3C92.9,566,91.1,569.7,87.6,572.2L87.6,572.2z M76.8,585.2  c0-1.4-0.4-2.5-1.2-3.4c-0.8-0.9-1.9-1.4-3.4-1.6H36.1l7.1-15H70c1.7,0,2.9-0.5,3.8-1.5c0.9-1,1.3-2.2,1.3-3.5v-3.4  c0-1.4-0.4-2.6-1.3-3.5c-0.9-1-2.1-1.5-3.8-1.5H29.4v41.8h42.3c1.7,0,2.9-0.5,3.8-1.5c0.9-1,1.3-2.2,1.3-3.5V585.2L76.8,585.2z"></path><path class="st3" d="M190.8,609.1h-21.1l-17.4-26.6H133v-0.1l7.1-15.5h25c1.5-0.1,2.7-0.7,3.5-1.6c0.8-0.9,1.2-2,1.2-3.4l-0.1-5.1  c0-1.4-0.4-2.6-1.3-3.5c-0.9-1-2.1-1.5-3.8-1.5h-39.5v57.3h-17.7v-72.8h57.9c7.9,0,13.6,1.6,17,4.8c3.5,3.2,5.2,8.1,5.2,14.8v5.5  c0,5.6-1.2,10-3.6,13.1c-2.4,3.1-6.3,5-11.8,5.9L190.8,609.1L190.8,609.1z"></path><path class="st3" d="M201.3,609.1v-72.8h17.8v72.8H201.3z"></path><path class="st3" d="M376.1,565.6h33.1v43.6h-52.7c-4.6,0-8.6-0.5-11.9-1.5s-6-2.5-8.1-4.6s-3.6-4.8-4.6-8.1s-1.5-7.3-1.5-12v-20.5  c0-4.7,0.6-8.7,1.7-12.1c1.1-3.3,2.9-6,5.2-8.1c2.3-2.1,5.2-3.6,8.6-4.6c3.5-1,7.5-1.5,12.3-1.5h50.9l-7.2,16.1h-43.8  c-3.3,0-5.8,1-7.5,3s-2.5,4.7-2.5,8v20.1c0,3.1,0.7,5.4,2.1,7s3.5,2.4,6.1,2.4h34.9v-11.3h-22.5L376.1,565.6L376.1,565.6z"></path><path class="st3" d="M492.5,552.5h-43.8c-3.3,0-5.8,1-7.5,3s-2.5,4.7-2.5,8v20.1c0,3,0.7,5.4,2.1,7s3.5,2.4,6.1,2.4h52.6l-7.1,16.1  h-45.5c-4.6,0-8.6-0.5-11.9-1.5s-6-2.5-8.1-4.6s-3.6-4.8-4.6-8.1s-1.5-7.3-1.5-11.9v-20.5c0-4.7,0.6-8.7,1.7-12.1  c1.1-3.3,2.9-6,5.2-8.1c2.3-2.1,5.2-3.6,8.6-4.6c3.5-1,7.5-1.5,12.3-1.5h50.9v0.1L492.5,552.5L492.5,552.5z M444.6,580.8l7.1-16.1  h33.1v16.1H444.6L444.6,580.8z"></path><path class="st4" d="M378.5,291.9c-1.7,1.2-3.4,2.3-5.3,3.3c-1.2,0.6-2.4,1.2-3.5,1.7c-1.3,0.6-2.6,1.3-4,1.9c-2,1-4.1,2-6.2,3  c-8.1,4-16.4,7.6-24.8,10.7c-0.1-0.2-0.2-0.4-0.2-0.6c-0.3-0.9-0.6-1.7-0.9-2.6s-0.6-1.8-1-2.8c-0.7-2-1.4-3.9-2.1-5.9  c-1.3-3.8-2.3-6.6-2.9-8.3c-10-28.3-24.7-55.1-43.4-78.6c-0.5-0.6-1-1.3-1.5-1.9c-13.5-17.3-28.9-32.5-46.1-45.9  c-6.4-5-13.1-9.7-20.1-14.2c-1.9-1.2-3.8-2.5-5.7-3.7c-1.2-0.8-2.5-1.6-3.7-2.4c-1.1-0.7-2.2-1.4-3.3-2.1c-2.5-1.5-5-2.6-7.7-3.7  c-0.1,0-0.2-0.1-0.4-0.1c-2.2-1.2-4.5-2.5-6.7-3.8c-5-2.9-10-5.3-15.4-7.2c-1.4-0.6-3.3-1.6-5.7-3.2c-5.9,7.4-11.3,15-16.4,22.9  c-0.4,0.6-0.8,1.2-1.2,1.8c-2.1,3.2-4.2,6.4-6.2,9.5c-1.7,2.6-3.4,5.1-5,7.7c-15.2,23.1-28.8,46.7-39.1,72.4  c-0.6,1.4-1.1,2.8-1.7,4.2c-6.7,16.5-12.3,32.8-16.7,49.9c-0.3,1.1-0.6,2.2-0.9,3.4c-11.5,45-16.9,90.8-12.6,137.2  C50,433,30.2,419.9,17.9,407.2C5.6,392.5-1,373.9,0.1,354.6c0.9-7.3,2.4-14.5,3.9-21.7c0.2-0.9,0.4-1.9,0.6-2.8  c6-29.3,16.4-57,28.1-84.5c0.5-1.1,0.9-2.1,1.4-3.2c30.9-74,82.8-149.8,146.8-199.1c15.2,6.9,29.7,13.9,43.6,23.2  c-4.2,5-8.9,9.5-13.7,14c-0.8,0.7-1.5,1.5-2.4,2.2c-1.9,1.8-3.8,3.6-5.7,5.4c0.5,0.3,1.1,0.7,1.7,1c5.8,3.7,11.6,7.4,17.5,11.2  c2.2,1.4,4.3,2.8,6.5,4.1c15.4,9.8,29.7,20.4,43.5,32.4c0.7,0.6,1.4,1.2,2.1,1.8c4.2,3.7,8.3,7.5,12.3,11.4c0.7,0.7,1.4,1.4,2.1,2.1  C328,190.6,360.5,239.5,378.5,291.9L378.5,291.9z"></path><path class="st4" d="M383,303.4c-0.1,0.2-0.3,0.4-0.4,0.6c0-0.1-0.1-0.3-0.1-0.4C382.7,303.6,382.9,303.5,383,303.4L383,303.4z"></path><path class="st3" d="M707.9,613.7c0,0,0,0.1,0,0.2c-0.1,0-0.1-0.1-0.2-0.1C707.8,613.7,707.9,613.7,707.9,613.7z"></path><path class="st3" d="M708.4,613.8c0-0.1-0.1-0.2-0.1-0.2l0,0L708.4,613.8L708.4,613.8z"></path></svg>